<svg width="320" height="568" viewBox="0 0 320 568" fill="none" xmlns="http://www.w3.org/2000/svg">
<path d="M121.087 296.562C123.491 298.874 128.105 299.413 131.672 296.177C132.951 295.059 135.471 292.401 139.426 288.433C158.811 268.938 170.752 256.647 172.884 258.574C174.59 260.115 167.999 269.4 161.408 278.493C149.351 295.098 139.193 307.234 146.831 314.824C152.801 320.757 161.874 315.363 176.413 302.688C184.205 295.868 189.633 290.821 190.99 292.131C191.843 292.979 189.788 296.331 187.152 300.839C183.43 307.234 178.467 314.477 183.314 319.293C186.687 322.645 193.123 321.181 200.605 313.822C202.156 312.32 202.505 310.509 201.187 309.238C199.985 308.043 198.279 308.236 197 309.392C192.153 314.015 188.548 316.018 187.966 315.363C187.23 314.67 189.284 311.01 192.851 304.691C197.775 295.946 200.799 290.089 196.263 285.697C190.176 279.841 183.042 286.044 170.675 296.87C160.168 306.04 155.864 308.429 154.895 307.388C153.499 305.924 157.376 300.723 168.852 284.773C181.259 267.589 188.625 256.416 181.647 249.635C172.536 240.812 160.284 247.324 129.927 277.183C125.507 281.498 122.754 284.118 121.397 285.736C117.869 289.781 118.645 294.25 121.087 296.562Z" fill="white" fill-opacity="0.5"/>
</svg>
