<svg width="288" height="212" viewBox="0 0 288 212" fill="none" xmlns="http://www.w3.org/2000/svg">
<rect width="288" height="212" fill="white" fill-opacity="0.5"/>
<path d="M105.087 119.562C107.491 121.874 112.105 122.413 115.672 119.177C116.951 118.059 119.471 115.401 123.426 111.433C142.811 91.9376 154.752 79.6473 156.884 81.5737C158.59 83.1148 151.999 92.4 145.408 101.493C133.351 118.098 123.193 130.234 130.831 137.824C136.801 143.757 145.874 138.363 160.413 125.688C168.205 118.868 173.633 113.821 174.99 115.131C175.843 115.979 173.788 119.331 171.152 123.839C167.43 130.234 162.467 137.477 167.314 142.293C170.687 145.645 177.123 144.181 184.605 136.822C186.156 135.32 186.505 133.509 185.187 132.238C183.985 131.043 182.279 131.236 181 132.392C176.153 137.015 172.548 139.018 171.966 138.363C171.23 137.67 173.284 134.01 176.851 127.691C181.775 118.946 184.799 113.089 180.263 108.697C174.176 102.841 167.042 109.044 154.675 119.87C144.168 129.04 139.864 131.429 138.895 130.388C137.499 128.924 141.376 123.723 152.852 107.773C165.259 90.5892 172.625 79.4162 165.647 72.6353C156.536 63.8125 144.284 70.3236 113.927 100.183C109.507 104.498 106.754 107.118 105.397 108.736C101.869 112.781 102.645 117.25 105.087 119.562Z" fill="white" fill-opacity="0.5"/>
</svg>
